<?xml version="1.0" encoding="UTF-8" standalone="no"?>
<svg
   width="16"
   height="16"
   version="1.1"
   id="svg1"
   sodipodi:docname="Camera2D.svg"
   inkscape:version="1.4.2 (f4327f4, 2025-05-13)"
   xmlns:inkscape="http://www.inkscape.org/namespaces/inkscape"
   xmlns:sodipodi="http://sodipodi.sourceforge.net/DTD/sodipodi-0.dtd"
   xmlns="http://www.w3.org/2000/svg"
   xmlns:svg="http://www.w3.org/2000/svg">
  <defs
     id="defs1">
    <rect
       x="1.2490706"
       y="1.9429988"
       width="17.288724"
       height="13.700124"
       id="rect2" />
  </defs>
  <sodipodi:namedview
     id="namedview1"
     pagecolor="#ffffff"
     bordercolor="#000000"
     borderopacity="0.25"
     inkscape:showpageshadow="2"
     inkscape:pageopacity="0.0"
     inkscape:pagecheckerboard="0"
     inkscape:deskcolor="#d1d1d1"
     inkscape:zoom="50.4375"
     inkscape:cx="8"
     inkscape:cy="8"
     inkscape:window-width="1920"
     inkscape:window-height="1009"
     inkscape:window-x="-8"
     inkscape:window-y="-8"
     inkscape:window-maximized="1"
     inkscape:current-layer="svg1" />
  <path
     fill="#8da5f3"
     d="M9 2a3 3 0 0 0-3 2.777 3 3 0 1 0-3 5.047V12a1 1 0 0 0 1 1h6a1 1 0 0 0 1-1v-1l3 2V7l-3 2V7.23A3 3 0 0 0 9 2z"
     id="path1" />
  <text
     xml:space="preserve"
     id="text2"
     style="text-align:start;writing-mode:lr-tb;direction:ltr;white-space:pre;shape-inside:url(#rect2);fill:#ffffff;fill-opacity:1"
     transform="matrix(0.35814668,0,0,0.3766821,3.6482114,6.5285771)"><tspan
       x="1.25"
       y="12.891323"
       id="tspan1">2D</tspan></text>
</svg>
