<?xml version="1.0" encoding="UTF-8" standalone="no"?>
<!-- Created with Inkscape (http://www.inkscape.org/) -->

<svg
   version="1.1"
   id="svg1"
   width="61.439999"
   height="61.439999"
   viewBox="0 0 61.439999 61.439999"
   sodipodi:docname="RealStoreErrFile.svg"
   inkscape:version="1.4.2 (f4327f4, 2025-05-13)"
   xmlns:inkscape="http://www.inkscape.org/namespaces/inkscape"
   xmlns:sodipodi="http://sodipodi.sourceforge.net/DTD/sodipodi-0.dtd"
   xmlns="http://www.w3.org/2000/svg"
   xmlns:svg="http://www.w3.org/2000/svg">
  <defs
     id="defs1">
    <rect
       x="-9.7451298"
       y="-10.963271"
       width="109.78498"
       height="91.969663"
       id="rect8" />
    <inkscape:perspective
       sodipodi:type="inkscape:persp3d"
       inkscape:vp_x="0 : 30.72 : 1"
       inkscape:vp_y="0 : 1000 : 0"
       inkscape:vp_z="61.439999 : 30.72 : 1"
       inkscape:persp3d-origin="30.72 : 20.48 : 1"
       id="perspective2" />
    <rect
       x="-27.408178"
       y="-23.296951"
       width="102.1716"
       height="87.553901"
       id="rect2" />
    <rect
       x="-37.899661"
       y="-21.856907"
       width="114.23733"
       height="85.704914"
       id="rect1" />
  </defs>
  <sodipodi:namedview
     id="namedview1"
     pagecolor="#ffffff"
     bordercolor="#000000"
     borderopacity="0.25"
     inkscape:showpageshadow="2"
     inkscape:pageopacity="0.0"
     inkscape:pagecheckerboard="0"
     inkscape:deskcolor="#d1d1d1"
     inkscape:zoom="6.567383"
     inkscape:cx="-6.3191076"
     inkscape:cy="34.336356"
     inkscape:window-width="1920"
     inkscape:window-height="1009"
     inkscape:window-x="-8"
     inkscape:window-y="-8"
     inkscape:window-maximized="1"
     inkscape:current-layer="svg1" />
  <rect
     style="fill:#ed2b2b;fill-opacity:1;stroke-width:0.949925"
     id="rect7"
     width="5.5988135"
     height="57.71085"
     x="1.5073725"
     y="1.8303812"
     ry="0.51384395" />
  <rect
     style="fill:#ed2b2b;fill-opacity:1;stroke-width:0.949925"
     id="rect7-5"
     width="5.5988135"
     height="57.71085"
     x="33.7719"
     y="1.7511122"
     ry="0.51384395" />
  <rect
     style="fill:#ed2b2b;fill-opacity:1;stroke-width:0.769804"
     id="rect7-8"
     width="5.5988135"
     height="37.90004"
     x="-59.463043"
     y="1.4865701"
     ry="0.3374531"
     transform="matrix(1.566623e-4,-0.99999999,0.99999993,3.6324542e-4,0,0)" />
  <rect
     style="fill:#ed2b2b;fill-opacity:1;stroke-width:0.769804"
     id="rect7-8-1"
     width="5.5988135"
     height="37.90004"
     x="-7.3340559"
     y="1.4735687"
     ry="0.3374531"
     transform="matrix(1.566623e-4,-0.99999999,0.99999993,3.6324542e-4,0,0)" />
  <rect
     style="fill:#ed2b2b;fill-opacity:1;stroke-width:0.63961"
     id="rect7-8-1-7"
     width="5.5988135"
     height="26.164305"
     x="-26.239693"
     y="34.735813"
     ry="0.23296086"
     transform="matrix(1.0815186e-4,-0.99999999,0.99999986,5.2617548e-4,0,0)" />
  <rect
     style="fill:#ed2b2b;fill-opacity:1;stroke-width:0.63961"
     id="rect7-8-1-7-2"
     width="5.5988135"
     height="26.164305"
     x="-41.593689"
     y="34.716503"
     ry="0.23296086"
     transform="matrix(1.0815186e-4,-0.99999999,0.99999986,5.2617548e-4,0,0)" />
  <path
     d="m 16.09375,44.212891 v 5.107421 h 4.613281 v -5.107421 z"
     style="-inkscape-font-specification:sans-serif;white-space:pre;shape-inside:url(#rect8);fill:#ed2b2b"
     id="path9" />
  <path
     d="m 19.146484,12.554688 c -1.447541,0 -2.984797,0.176262 -4.613281,0.53125 -1.613405,0.338851 -2.948408,0.726443 -4.003906,1.162109 v 4.9375 h 0.226562 c 0.844399,-0.564752 1.989959,-1.121306 3.4375,-1.669922 1.46262,-0.548616 3.008236,-0.822266 4.636719,-0.822266 1.824505,0 3.309108,0.451866 4.455078,1.355469 1.161049,0.887468 1.742188,2.243063 1.742188,4.066406 0,1.387677 -0.242096,2.533897 -0.72461,3.4375 -0.482513,0.887468 -1.1606,1.748831 -2.035156,2.587891 -0.72377,0.72611 -1.658717,1.444323 -2.804687,2.154297 -1.130892,0.709974 -2.18591,1.363914 -3.166016,1.960937 v 7.382813 h 4.048828 v -5.445313 c 1.236441,-0.758381 2.405125,-1.540867 3.505859,-2.347656 1.100735,-0.806789 2.07357,-1.670104 2.917969,-2.589844 0.859478,-0.952011 1.552329,-2.041259 2.080078,-3.267578 0.52775,-1.242455 0.791016,-2.655022 0.791016,-4.236328 0,-2.759218 -0.941353,-4.978129 -2.826172,-6.65625 -1.86974,-1.694257 -4.42608,-2.541015 -7.667969,-2.541015 z"
     style="-inkscape-font-specification:sans-serif;white-space:pre;shape-inside:url(#rect8);fill:#ed2b2b"
     id="path8" />
</svg>
